<svg id="visual" viewBox="0 0 1500 100" width="1500" height="100" xmlns="http://www.w3.org/2000/svg" xmlns:xlink="http://www.w3.org/1999/xlink" version="1.1"><path d="M0 80L8 80.5C16 81 32 82 48.2 72.8C64.3 63.7 80.7 44.3 96.8 30.7C113 17 129 9 145.2 16C161.3 23 177.7 45 193.8 58.5C210 72 226 77 242 77.2C258 77.3 274 72.7 290.2 59C306.3 45.3 322.7 22.7 338.8 19.3C355 16 371 32 387 33C403 34 419 20 435.2 22.7C451.3 25.3 467.7 44.7 483.8 56.3C500 68 516 72 532.2 73.2C548.3 74.3 564.7 72.7 580.8 62C597 51.3 613 31.7 629 30.5C645 29.3 661 46.7 677.2 56.7C693.3 66.7 709.7 69.3 725.8 67.2C742 65 758 58 774.2 47C790.3 36 806.7 21 822.8 24.8C839 28.7 855 51.3 871 55.2C887 59 903 44 919.2 33.5C935.3 23 951.7 17 967.8 15.2C984 13.3 1000 15.7 1016.2 21.3C1032.3 27 1048.7 36 1064.8 46.7C1081 57.3 1097 69.7 1113 71.8C1129 74 1145 66 1161.2 52.5C1177.3 39 1193.7 20 1209.8 12.2C1226 4.3 1242 7.7 1258 8.7C1274 9.7 1290 8.3 1306.2 22.8C1322.3 37.3 1338.7 67.7 1354.8 75.5C1371 83.3 1387 68.7 1403.2 53.7C1419.3 38.7 1435.7 23.3 1451.8 30C1468 36.7 1484 65.3 1492 79.7L1500 94" fill="none" stroke-linecap="round" stroke-linejoin="miter" stroke="#FFA500" stroke-width="11"></path></svg>