<svg id="visual" viewBox="0 0 2500 200" width="2500" height="200" xmlns="http://www.w3.org/2000/svg" xmlns:xlink="http://www.w3.org/1999/xlink" version="1.1"><path d="M0 102L13.5 107.3C27 112.7 54 123.3 80.8 124.5C107.7 125.7 134.3 117.3 161.2 111.5C188 105.7 215 102.3 242 104.3C269 106.3 296 113.7 322.8 109C349.7 104.3 376.3 87.7 403.2 81.7C430 75.7 457 80.3 484 81.5C511 82.7 538 80.3 564.8 87.8C591.7 95.3 618.3 112.7 645.2 117C672 121.3 699 112.7 725.8 112C752.7 111.3 779.3 118.7 806.2 112.7C833 106.7 860 87.3 887 85C914 82.7 941 97.3 967.8 106.2C994.7 115 1021.3 118 1048.2 113.7C1075 109.3 1102 97.7 1129 97.8C1156 98 1183 110 1209.8 108.8C1236.7 107.7 1263.3 93.3 1290.2 84.8C1317 76.3 1344 73.7 1371 83.5C1398 93.3 1425 115.7 1451.8 115.8C1478.7 116 1505.3 94 1532.2 92.8C1559 91.7 1586 111.3 1613 113C1640 114.7 1667 98.3 1693.8 87.7C1720.7 77 1747.3 72 1774.2 80.5C1801 89 1828 111 1854.8 119.7C1881.7 128.3 1908.3 123.7 1935.2 118.3C1962 113 1989 107 2016 106C2043 105 2070 109 2096.8 107.8C2123.7 106.7 2150.3 100.3 2177.2 104.5C2204 108.7 2231 123.3 2258 127.2C2285 131 2312 124 2338.8 111C2365.7 98 2392.3 79 2419.2 82.2C2446 85.3 2473 110.7 2486.5 123.3L2500 136L2500 201L2486.5 201C2473 201 2446 201 2419.2 201C2392.3 201 2365.7 201 2338.8 201C2312 201 2285 201 2258 201C2231 201 2204 201 2177.2 201C2150.3 201 2123.7 201 2096.8 201C2070 201 2043 201 2016 201C1989 201 1962 201 1935.2 201C1908.3 201 1881.7 201 1854.8 201C1828 201 1801 201 1774.2 201C1747.3 201 1720.7 201 1693.8 201C1667 201 1640 201 1613 201C1586 201 1559 201 1532.2 201C1505.3 201 1478.7 201 1451.8 201C1425 201 1398 201 1371 201C1344 201 1317 201 1290.2 201C1263.3 201 1236.7 201 1209.8 201C1183 201 1156 201 1129 201C1102 201 1075 201 1048.2 201C1021.3 201 994.7 201 967.8 201C941 201 914 201 887 201C860 201 833 201 806.2 201C779.3 201 752.7 201 725.8 201C699 201 672 201 645.2 201C618.3 201 591.7 201 564.8 201C538 201 511 201 484 201C457 201 430 201 403.2 201C376.3 201 349.7 201 322.8 201C296 201 269 201 242 201C215 201 188 201 161.2 201C134.3 201 107.7 201 80.8 201C54 201 27 201 13.5 201L0 201Z" fill="#FFA500" stroke-linecap="round" stroke-linejoin="miter"></path></svg>