<svg id="visual" viewBox="0 0 2500 100" width="2500" height="100" xmlns="http://www.w3.org/2000/svg" xmlns:xlink="http://www.w3.org/1999/xlink" version="1.1"><rect x="0" y="0" width="2500" height="100" fill="#ffffff"></rect><path d="M0 67L13.5 67.3C27 67.7 54 68.3 80.8 67.8C107.7 67.3 134.3 65.7 161.2 60.8C188 56 215 48 242 48.5C269 49 296 58 322.8 57C349.7 56 376.3 45 403.2 42.2C430 39.3 457 44.7 484 50.3C511 56 538 62 564.8 59.5C591.7 57 618.3 46 645.2 39.7C672 33.3 699 31.7 725.8 33C752.7 34.3 779.3 38.7 806.2 43.3C833 48 860 53 887 53.5C914 54 941 50 967.8 50.5C994.7 51 1021.3 56 1048.2 55.5C1075 55 1102 49 1129 48.5C1156 48 1183 53 1209.8 55C1236.7 57 1263.3 56 1290.2 54C1317 52 1344 49 1371 47.5C1398 46 1425 46 1451.8 49.8C1478.7 53.7 1505.3 61.3 1532.2 59.5C1559 57.7 1586 46.3 1613 45.7C1640 45 1667 55 1693.8 58.7C1720.7 62.3 1747.3 59.7 1774.2 57.8C1801 56 1828 55 1854.8 51.8C1881.7 48.7 1908.3 43.3 1935.2 45.8C1962 48.3 1989 58.7 2016 63C2043 67.3 2070 65.7 2096.8 59.8C2123.7 54 2150.3 44 2177.2 43.8C2204 43.7 2231 53.3 2258 58.2C2285 63 2312 63 2338.8 62.8C2365.7 62.7 2392.3 62.3 2419.2 58.3C2446 54.3 2473 46.7 2486.5 42.8L2500 39L2500 101L2486.5 101C2473 101 2446 101 2419.2 101C2392.3 101 2365.7 101 2338.8 101C2312 101 2285 101 2258 101C2231 101 2204 101 2177.2 101C2150.3 101 2123.7 101 2096.8 101C2070 101 2043 101 2016 101C1989 101 1962 101 1935.2 101C1908.3 101 1881.7 101 1854.8 101C1828 101 1801 101 1774.2 101C1747.3 101 1720.7 101 1693.8 101C1667 101 1640 101 1613 101C1586 101 1559 101 1532.2 101C1505.3 101 1478.7 101 1451.8 101C1425 101 1398 101 1371 101C1344 101 1317 101 1290.2 101C1263.3 101 1236.7 101 1209.8 101C1183 101 1156 101 1129 101C1102 101 1075 101 1048.2 101C1021.3 101 994.7 101 967.8 101C941 101 914 101 887 101C860 101 833 101 806.2 101C779.3 101 752.7 101 725.8 101C699 101 672 101 645.2 101C618.3 101 591.7 101 564.8 101C538 101 511 101 484 101C457 101 430 101 403.2 101C376.3 101 349.7 101 322.8 101C296 101 269 101 242 101C215 101 188 101 161.2 101C134.3 101 107.7 101 80.8 101C54 101 27 101 13.5 101L0 101Z" fill="#FFA500" stroke-linecap="round" stroke-linejoin="miter"></path></svg>